# xmcd
#
# Track frame offsets: 
#        150
#        18460
#        34305
#        57137
#        82100
#        103282
#        132225
#        154665
#        179150
#        198237
#        216675
#        240375
#        269895
#        294270
#        309292
#
# Disc length: 4345 seconds
#
# Revision: 4
# Processed by: cddbd v1.5.2PL0 Copyright (c) Steve Scherf et al.
# Submitted via: ExactAudioCopy v1.3
#
DISCID=e410f70f
DTITLE=Sade - Greatest Hits 1984-1994
DYEAR=1900
DGENRE=Blues
TTITLE0=Your Love Is King
TTITLE1=When Am I Gonna Make A Living
TTITLE2=Smooth Operator
TTITLE3=Why Can't We Live Together
TTITLE4=The Sweetest Taboo
TTITLE5=Is It A Crime
TTITLE6=Never As Good As A First Time
TTITLE7=Jezebel
TTITLE8=Love Is Stronger Than Pride
TTITLE9=Paradise
TTITLE10=Turn My Back On You
TTITLE11=No Ordinary Love
TTITLE12=Cherish The Day
TTITLE13=Feel No Pain
TTITLE14=Please, Send Me Someone To Love
EXTD=
EXTT0=
EXTT1=
EXTT2=
EXTT3=
EXTT4=
EXTT5=
EXTT6=
EXTT7=
EXTT8=
EXTT9=
EXTT10=
EXTT11=
EXTT12=
EXTT13=
EXTT14=
PLAYORDER=
